#!OML:ASF F:\VICON\USERDATA\INSTALL\rory3\rory3.ASF
:FULLY-SPECIFIED
:DEGREES
86
root 0.15050862075555305 17.987871643815044 38.28910515358494 -4.014849867587631 0.5918258224722863 -5.963459376930356
lfemur -13.549820500702863 -0.08504614136747746 -12.69628780754132
ltibia 67.86411372612328
lfoot -0.5009695333052475 -10.915182056099667
ltoes -14.44298393758758
rfemur -10.66392053825503 3.864086758816392 32.73921496966117
rtibia 29.445892917885914
rfoot -11.8045142844129 -8.06552143400062
rtoes 4.1734651804806395
lowerback -1.0 0.15379131822418968 2.8449937510635204
upperback 0.34367249271778344 0.8078905099496226 2.562548859916361
thorax -5.63088884023188 0.35669411320389266 0.793503982097379
lowerneck -16.25121581607524 -2.934641632205283 -2.138538549138905
upperneck 20.457074563770103 -3.924206085904858 2.3523168062510122
head 9.260754256245196 -1.7514336500423315 0.5780215653638227
lclavicle 7.670224183732305e-16 -6.824389897929749e-16
lhumerus -29.390315140817272 2.0395055410785345 82.95727552190637
lradius 29.6914932804532
lwrist 9.331688121632812
lhand -29.069205263340272 21.333373697502502
lfingers nan
lthumb -2.623442764585369 50.17830485994155
rclavicle 6.725222968846468e-16 -6.874087376667557e-16
rhumerus -35.3530426254066 -25.191899507059752 -74.22211271693635
rradius 25.185330252930036
rwrist 4.535219171499879
rhand -17.786557057564476 -1.0
rfingers nan
rthumb 8.431405988983474 -7.3296378481146505
87
root 0.14355050180357443 18.002120993517465 38.92963583280209 -3.736215166024787 -0.19438844119745435 -6.371505901797505
lfemur -17.62470710868055 1.094622458035321 -12.123126204564588
ltibia 67.31108682889409
lfoot -3.4194991109704467 -7.793165965091077
ltoes -14.314943385818584
rfemur -8.671550335715587 3.603177589711792 33.51302886501854
rtibia 29.98969258218777
rfoot -13.413568716081123 -7.73848399036871
rtoes 4.327555129131028
lowerback -1.0 0.5314999651973693 3.4847979501670627
upperback 0.34150950802847935 1.403948320629107 2.4659837956379853
thorax -5.621591499231108 0.6304310920546619 0.19144752804224852
lowerneck -16.243122322115823 -2.9747500317431066 -2.0717053836337933
upperneck 20.340688219990824 -4.008810814465319 2.3689848713536694
head 9.218321027871035 -1.7748147035522985 0.563057624280097
lclavicle 8.205267639254613e-16 -6.693774124343167e-16
lhumerus -30.268709706111053 2.5249822164826474 83.0331987736719
lradius 29.15317096686039
lwrist 9.172709447854194
lhand -29.04707008222379 21.189935951214256
lfingers nan
lthumb -2.5989358529897446 50.080599864852246
rclavicle 7.822859060773938e-16 -6.384577040232482e-16
rhumerus -33.93695134698531 -23.834687139137568 -75.35350604432955
rradius 25.722295815867447
rwrist 3.739764856964027
rhand -17.75815011438819 -1.0
rfingers nan
rthumb 8.45330755499303 -7.4297298295649385
88
root 0.14295179287050908 17.955998442263255 39.37863573878529 -3.3336771877061713 -0.8858740906987282 -6.75757959467386
lfemur -21.11710199078696 2.0001170251190343 -11.756893942306942
ltibia 64.38336629898373
lfoot -4.858441649575209 -4.452860457255138
ltoes -14.945805444084982
rfemur -7.2781203398340155 3.422026823294858 34.14482623431933
rtibia 31.304722092371268
rfoot -14.010331665649344 -7.054071671731336
rtoes 5.09208360338161
lowerback -1.0 0.8416973191353693 4.077880048274774
upperback 0.25756631376855993 1.9173634813188896 2.372726851032162
thorax -5.679566374392506 0.8741700667263524 -0.3537439830009179
lowerneck -16.29215214106563 -3.016807100871687 -2.0048148147294675
upperneck 20.197565913963853 -4.1003075766611365 2.3936161529163003
head 9.16999075236421 -1.8012563414021496 0.5510487835388955
lclavicle 9.526648389995065e-16 -5.911273223691153e-16
lhumerus -31.085722434014826 3.0947419395178173 83.01056702261822
lradius 28.565853923900686
lwrist 9.075648448076416
lhand -29.04759868141298 21.00522524406534
lfingers nan
lthumb -2.600793417497903 49.93218753684132
rclavicle 9.664358701124398e-16 -5.348010676518448e-16
rhumerus -32.465219517769725 -22.191142195727775 -76.51986430026486
rradius 26.54855624656159
rwrist 2.709189069369773
rhand -17.792844790498087 -1.0
rfingers nan
rthumb 8.432960040565348 -7.435899416713988
89
root 0.15893829776407054 17.8788351030604 40.424185703591284 -2.844130193649115 -1.7586014778368284 -7.054630019949161
lfemur -24.096166751111355 2.255588723714683 -11.550172087750898
ltibia 59.32509288555708
lfoot -6.203664620864789 -2.1041599219536917
ltoes -15.022499818245489
rfemur -5.856993886871875 3.441620218140975 34.71162617740425
rtibia 32.20988026418936
rfoot -14.12967883904037 -6.661344520318815
rtoes 5.72841344279086
lowerback -1.0 1.1626416618596052 4.625593770924674
upperback 0.14170008777629972 2.407366990567475 2.2946739852018254
thorax -5.798215848748697 1.108309361634729 -0.8856419339269455
lowerneck -16.367814627648706 -3.0664918330746316 -1.9492209060860277
upperneck 20.035918535618354 -4.205913474110289 2.433412070318509
head 9.116047253259458 -1.8327724607982125 0.5431269975945843
lclavicle 1.0324078824883317e-15 -5.517888597597792e-16
lhumerus -31.85367032329224 3.7328864722820883 82.8726759745282
lradius 27.920059240228596
lwrist 8.927689147555142
lhand -29.052214643135116 20.855401793542594
lfingers nan
lthumb -2.6078704379178834 49.788661840099635
rclavicle 1.0810765830036163e-15 -4.779263402246374e-16
rhumerus -31.09808301724817 -20.442402454234337 -77.60604772476212
rradius 27.609533744182443
rwrist 1.6060765826622263
rhand -17.872410934663048 -1.0
rfingers nan
rthumb 8.372144260328893 -7.310170362126104
